<svg width="222" height="10" viewBox="0 0 222 10" fill="none" xmlns="http://www.w3.org/2000/svg">
<path d="M3.41016 1.78711L1.21289 9H0.164062L2.88867 0.544922H3.99023L6.71484 9H5.625L3.43945 1.78711H3.41016ZM4.95703 5.68945L5.13281 6.57422H1.77539L1.96289 5.68945H4.95703ZM8.97656 9H8.04492V0.544922H9.03516L12.6562 7.125H12.7383V0.544922H13.6699V9H12.6914L9.05859 2.40234H8.97656V9ZM28.3242 8.05078V9H23.332V0.544922H28.3242V1.49414H24.3691V4.23633H28.1074V5.14453H24.3691V8.05078H28.3242ZM33.082 1.78711L30.8848 9H29.8359L32.5605 0.544922H33.6621L36.3867 9H35.2969L33.1113 1.78711H33.082ZM34.6289 5.68945L34.8047 6.57422H31.4473L31.6348 5.68945H34.6289ZM37.6348 6.75H38.6426C38.6934 7.21094 38.8945 7.57422 39.2461 7.83984C39.5977 8.10547 40.0547 8.23828 40.6172 8.23828C41.1836 8.23828 41.6348 8.10352 41.9707 7.83398C42.3105 7.56055 42.4805 7.19727 42.4805 6.74414C42.4805 6.37695 42.3516 6.07812 42.0938 5.84766C41.8359 5.61719 41.4199 5.43164 40.8457 5.29102L40.1191 5.10938C39.334 4.91406 38.7578 4.625 38.3906 4.24219C38.0234 3.85547 37.8398 3.35547 37.8398 2.74219C37.8398 2.25781 37.9531 1.83984 38.1797 1.48828C38.4102 1.13281 38.7324 0.857422 39.1465 0.662109C39.5605 0.466797 40.0488 0.369141 40.6113 0.369141C41.1426 0.369141 41.6113 0.466797 42.0176 0.662109C42.4238 0.853516 42.7441 1.12305 42.9785 1.4707C43.2168 1.81836 43.3477 2.22656 43.3711 2.69531H42.3633C42.3125 2.25781 42.1328 1.91797 41.8242 1.67578C41.5156 1.42969 41.1133 1.30664 40.6172 1.30664C40.0742 1.30664 39.6484 1.42969 39.3398 1.67578C39.0352 1.91797 38.8828 2.25391 38.8828 2.68359C38.8828 3.05078 39.0059 3.34766 39.252 3.57422C39.502 3.79688 39.9023 3.97656 40.4531 4.11328L41.1914 4.30078C42.0117 4.50391 42.6055 4.79492 42.9727 5.17383C43.3398 5.54883 43.5234 6.05469 43.5234 6.69141C43.5234 7.19531 43.4023 7.63281 43.1602 8.00391C42.9219 8.375 42.584 8.66406 42.1465 8.87109C41.7129 9.07422 41.2012 9.17578 40.6113 9.17578C39.7363 9.17578 39.0312 8.95898 38.4961 8.52539C37.9648 8.0918 37.6777 7.5 37.6348 6.75ZM48.4629 9H47.4316V5.51367L44.6133 0.544922H45.7676L47.9062 4.41211H47.9883L50.127 0.544922H51.2812L48.4629 5.51367V9ZM62.8184 3.75586H62.748L61.5 9H60.5273L59.0742 0.544922H60.0527L60.5625 3.93164L61.0723 7.45312H61.1367L62.3203 2.47852H63.2461L64.4297 7.45312H64.4941L65.0039 3.93164L65.5137 0.544922H66.4922L65.0391 9H64.0664L62.8184 3.75586ZM70.1719 1.78711L67.9746 9H66.9258L69.6504 0.544922H70.752L73.4766 9H72.3867L70.2012 1.78711H70.1719ZM71.7188 5.68945L71.8945 6.57422H68.5371L68.7246 5.68945H71.7188ZM78.1348 9H77.1035V5.51367L74.2852 0.544922H75.4395L77.5781 4.41211H77.6602L79.7988 0.544922H80.9531L78.1348 5.51367V9ZM92.9707 9H91.9395V1.49414H89.3848V0.544922H95.5254V1.49414H92.9707V9ZM102.973 5.45508C102.973 6.62305 102.695 7.53516 102.141 8.19141C101.59 8.84766 100.834 9.17578 99.873 9.17578C98.9121 9.17578 98.1543 8.84766 97.5996 8.19141C97.0488 7.53516 96.7734 6.62305 96.7734 5.45508V4.08984C96.7734 2.91797 97.0488 2.00586 97.5996 1.35352C98.1543 0.697266 98.9121 0.369141 99.873 0.369141C100.834 0.369141 101.59 0.697266 102.141 1.35352C102.695 2.00586 102.973 2.91797 102.973 4.08984V5.45508ZM99.873 8.19727C100.514 8.19727 101.016 7.96094 101.379 7.48828C101.746 7.01172 101.93 6.33203 101.93 5.44922V4.0957C101.93 3.21289 101.746 2.53516 101.379 2.0625C101.016 1.58594 100.514 1.34766 99.873 1.34766C99.2324 1.34766 98.7285 1.58594 98.3613 2.0625C97.998 2.53516 97.8164 3.21289 97.8164 4.0957V5.44922C97.8164 6.33203 97.998 7.01172 98.3613 7.48828C98.7285 7.96094 99.2324 8.19727 99.873 8.19727ZM111.814 6.75H112.822C112.873 7.21094 113.074 7.57422 113.426 7.83984C113.777 8.10547 114.234 8.23828 114.797 8.23828C115.363 8.23828 115.814 8.10352 116.15 7.83398C116.49 7.56055 116.66 7.19727 116.66 6.74414C116.66 6.37695 116.531 6.07812 116.273 5.84766C116.016 5.61719 115.6 5.43164 115.025 5.29102L114.299 5.10938C113.514 4.91406 112.938 4.625 112.57 4.24219C112.203 3.85547 112.02 3.35547 112.02 2.74219C112.02 2.25781 112.133 1.83984 112.359 1.48828C112.59 1.13281 112.912 0.857422 113.326 0.662109C113.74 0.466797 114.229 0.369141 114.791 0.369141C115.322 0.369141 115.791 0.466797 116.197 0.662109C116.604 0.853516 116.924 1.12305 117.158 1.4707C117.396 1.81836 117.527 2.22656 117.551 2.69531H116.543C116.492 2.25781 116.312 1.91797 116.004 1.67578C115.695 1.42969 115.293 1.30664 114.797 1.30664C114.254 1.30664 113.828 1.42969 113.52 1.67578C113.215 1.91797 113.062 2.25391 113.062 2.68359C113.062 3.05078 113.186 3.34766 113.432 3.57422C113.682 3.79688 114.082 3.97656 114.633 4.11328L115.371 4.30078C116.191 4.50391 116.785 4.79492 117.152 5.17383C117.52 5.54883 117.703 6.05469 117.703 6.69141C117.703 7.19531 117.582 7.63281 117.34 8.00391C117.102 8.375 116.764 8.66406 116.326 8.87109C115.893 9.07422 115.381 9.17578 114.791 9.17578C113.916 9.17578 113.211 8.95898 112.676 8.52539C112.145 8.0918 111.857 7.5 111.814 6.75ZM119.578 0.544922H122.391C122.938 0.544922 123.414 0.658203 123.82 0.884766C124.227 1.10742 124.541 1.42188 124.764 1.82812C124.99 2.23438 125.104 2.71094 125.104 3.25781C125.104 3.80078 124.99 4.27734 124.764 4.6875C124.537 5.09375 124.219 5.4082 123.809 5.63086C123.398 5.85352 122.918 5.96484 122.367 5.96484H120.615V9H119.578V0.544922ZM120.615 1.46484V5.04492H122.133C122.75 5.04492 123.225 4.89062 123.557 4.58203C123.889 4.27344 124.055 3.83203 124.055 3.25781C124.055 2.67969 123.889 2.23633 123.557 1.92773C123.225 1.61914 122.75 1.46484 122.133 1.46484H120.615ZM132.41 8.03906V9H127.377V0.544922H128.402V8.03906H132.41ZM139.189 9H134.736V8.08008H136.447V1.46484H134.736V0.544922H139.189V1.46484H137.479V8.08008H139.189V9ZM144.896 9H143.865V1.49414H141.311V0.544922H147.451V1.49414H144.896V9ZM159.732 9H158.701V5.51367L155.883 0.544922H157.037L159.176 4.41211H159.258L161.396 0.544922H162.551L159.732 5.51367V9ZM169.734 5.45508C169.734 6.62305 169.457 7.53516 168.902 8.19141C168.352 8.84766 167.596 9.17578 166.635 9.17578C165.674 9.17578 164.916 8.84766 164.361 8.19141C163.811 7.53516 163.535 6.62305 163.535 5.45508V4.08984C163.535 2.91797 163.811 2.00586 164.361 1.35352C164.916 0.697266 165.674 0.369141 166.635 0.369141C167.596 0.369141 168.352 0.697266 168.902 1.35352C169.457 2.00586 169.734 2.91797 169.734 4.08984V5.45508ZM166.635 8.19727C167.275 8.19727 167.777 7.96094 168.141 7.48828C168.508 7.01172 168.691 6.33203 168.691 5.44922V4.0957C168.691 3.21289 168.508 2.53516 168.141 2.0625C167.777 1.58594 167.275 1.34766 166.635 1.34766C165.994 1.34766 165.49 1.58594 165.123 2.0625C164.76 2.53516 164.578 3.21289 164.578 4.0957V5.44922C164.578 6.33203 164.76 7.01172 165.123 7.48828C165.49 7.96094 165.994 8.19727 166.635 8.19727ZM174.053 8.19727C174.67 8.19727 175.148 8.00586 175.488 7.62305C175.828 7.23633 175.998 6.69531 175.998 6V0.544922H177.029V6.06445C177.029 7.03711 176.766 7.79883 176.238 8.34961C175.715 8.90039 174.986 9.17578 174.053 9.17578C173.119 9.17578 172.389 8.90039 171.861 8.34961C171.338 7.79883 171.076 7.03711 171.076 6.06445V0.544922H172.107V6C172.107 6.69531 172.277 7.23633 172.617 7.62305C172.957 8.00586 173.436 8.19727 174.053 8.19727ZM179.848 1.46484V4.75781H181.523C182.109 4.75781 182.559 4.61523 182.871 4.33008C183.188 4.04492 183.346 3.63867 183.346 3.11133C183.346 2.58789 183.191 2.18359 182.883 1.89844C182.574 1.60938 182.137 1.46484 181.57 1.46484H179.848ZM181.793 5.63086H179.848V9H178.828V0.544922H181.664C182.5 0.544922 183.162 0.773438 183.65 1.23047C184.143 1.68359 184.389 2.30273 184.389 3.08789C184.389 3.63867 184.246 4.125 183.961 4.54688C183.676 4.96875 183.293 5.25977 182.812 5.41992L184.535 9H183.369L181.793 5.63086ZM196.465 9H193.699V0.544922H196.436C197.217 0.544922 197.828 0.730469 198.27 1.10156C198.711 1.46875 198.932 1.98047 198.932 2.63672C198.932 2.94922 198.869 3.23633 198.744 3.49805C198.623 3.75977 198.453 3.97656 198.234 4.14844C198.016 4.32031 197.764 4.43164 197.479 4.48242V4.57031C197.857 4.60547 198.188 4.7168 198.469 4.9043C198.75 5.08789 198.969 5.33008 199.125 5.63086C199.281 5.92773 199.359 6.26367 199.359 6.63867C199.359 7.37695 199.104 7.95508 198.592 8.37305C198.08 8.79102 197.371 9 196.465 9ZM194.725 1.43555V4.19531H196.043C196.645 4.19531 197.102 4.07812 197.414 3.84375C197.73 3.60547 197.889 3.26367 197.889 2.81836C197.889 2.37695 197.742 2.03711 197.449 1.79883C197.156 1.55664 196.74 1.43555 196.201 1.43555H194.725ZM194.725 8.10352H196.242C196.914 8.10352 197.422 7.97461 197.766 7.7168C198.113 7.45508 198.287 7.07227 198.287 6.56836C198.287 5.56055 197.594 5.05664 196.207 5.05664H194.725V8.10352ZM205.951 9H201.498V8.08008H203.209V1.46484H201.498V0.544922H205.951V1.46484H204.24V8.08008H205.951V9ZM214.008 8.03906V9H208.975V0.544922H210V8.03906H214.008ZM221.426 8.03906V9H216.393V0.544922H217.418V8.03906H221.426Z" fill="black"/>
</svg>
